<svg width="20" height="20" viewBox="0 0 20 20" fill="none" xmlns="http://www.w3.org/2000/svg">
<path d="M8.73865 0.252419C4.19603 0.252419 0.500732 3.94771 0.500732 8.49034C0.500732 13.033 4.19603 16.7283 8.73865 16.7283C10.1273 16.7283 11.4925 16.3987 12.6458 15.7632C12.7382 15.8744 12.8406 15.9768 12.9518 16.0692L15.3055 18.4229C15.5228 18.6675 15.7878 18.865 16.0843 19.0034C16.3807 19.1418 16.7023 19.2182 17.0293 19.2278C17.3563 19.2375 17.6819 19.1802 17.986 19.0594C18.29 18.9387 18.5662 18.7571 18.7976 18.5257C19.0289 18.2944 19.2105 18.0182 19.3313 17.7141C19.452 17.41 19.5093 17.0845 19.4997 16.7575C19.4901 16.4304 19.4137 16.1088 19.2753 15.8124C19.1369 15.516 18.9393 15.2509 18.6948 15.0336L16.3411 12.6799C16.2264 12.5652 16.1002 12.4627 15.9645 12.3739C16.6 11.2206 17.0001 9.87901 17.0001 8.4668C17.0001 3.92418 13.3048 0.228882 8.76219 0.228882L8.73865 0.252419ZM8.73865 2.60611C12.0103 2.60611 14.6229 5.21871 14.6229 8.49034C14.6229 10.0438 14.058 11.4795 13.0694 12.5387C13.0459 12.5622 13.0224 12.5858 12.9988 12.6093C12.8877 12.7017 12.7852 12.8041 12.6929 12.9153C11.6572 13.8568 10.245 14.3981 8.71512 14.3981C5.44348 14.3981 2.83089 11.7855 2.83089 8.51387C2.83089 5.24224 5.44348 2.62965 8.71512 2.62965L8.73865 2.60611Z" fill="black"/>
</svg>
